Coordinates
version=1
nRows=14
nColumns=24
inDegrees=yes

Units are S.I. units (second, meters, Newtons, ...)
Angles are in degrees.

endheader
time	pelvis_tilt	pelvis_list	pelvis_rotation	pelvis_tx	pelvis_ty	pelvis_tz	hip_flexion_r	hip_adduction_r	hip_rotation_r	knee_angle_r	ankle_angle_r	subtalar_angle_r	mtp_angle_r	hip_flexion_l	hip_adduction_l	hip_rotation_l	knee_angle_l	ankle_angle_l	subtalar_angle_l	mtp_angle_l	lumbar_extension	lumbar_bending	lumbar_rotation
      4.35000000	     -9.15850436	      0.21052415	      6.38459704	     -1.65811580	     -0.02516481	     -0.74469431	     32.88879919	     -4.13656286	    -12.64157820	    -14.59520621	     -4.90824927	     -7.09031420	      9.41711694	     -6.57876208	      0.78655653	    -11.14598128	    -14.35560542	      9.75806526	      8.03607055	      8.06374548	      7.43267694	      0.14859396	    -12.18483679
      4.35500000	     -9.21403146	     -0.03276526	      6.34812607	     -1.65095736	     -0.02542039	     -0.74389013	     32.83030994	     -3.78328101	    -12.36314683	    -15.04030405	     -5.53643071	     -7.71684124	      8.40216605	     -6.49266967	      0.30644951	    -11.16930657	    -15.19281804	      9.22489385	      8.20066445	      7.99924877	      7.69808954	      0.44366553	    -12.27292364
      4.36000000	     -9.28423995	     -0.31436362	      6.35870601	     -1.64371164	     -0.02557799	     -0.74325153	     32.76588393	     -3.47266867	    -12.41362211	    -15.43322404	     -6.20613996	     -8.14292402	      8.07059274	     -6.35548788	     -0.20424869	    -11.09275640	    -16.06941056	      8.59137362	      8.24652930	      7.91648920	      8.00088394	      0.78631670	    -12.38078864
      4.36500000	     -9.34591106	     -0.56747964	      6.16157826	     -1.63660741	     -0.02572759	     -0.74212483	     32.72421705	     -3.02076689	    -12.02098315	    -15.82357198	     -6.92055831	     -8.92576552	      6.84597496	     -6.17678345	     -0.72305082	    -11.45228745	    -17.06449277	      7.99235387	      8.56048502	      7.88644148	      8.25193005	      1.10801873	    -12.30679501
      4.37000000	     -9.42407697	     -0.86911718	      6.15414133	     -1.62936454	     -0.02569454	     -0.74142212	     32.63834337	     -2.70034261	    -12.16050000	    -16.15526382	     -7.55538062	     -9.37861614	      6.45351121	     -5.93474760	     -1.26274083	    -11.38432056	    -18.07726006	      7.18081247	      8.49912102	      7.79003460	      8.56067846	      1.46866505	    -12.41590168
      4.37500000	     -9.51025742	     -1.13077826	      5.94170095	     -1.62226869	     -0.02567911	     -0.74027484	     32.59550136	     -2.24932964	    -11.78642559	    -16.53413683	     -8.08705656	    -10.09499365	      4.82695624	     -5.62745078	     -1.80519731	    -11.79031845	    -19.21856895	      6.37483395	      8.70464417	      7.87245040	      8.83140965	      1.81210852	    -12.32776446
      4.38000000	     -9.57400955	     -1.39358354	      5.92671450	     -1.61515503	     -0.02543988	     -0.73949962	     32.46795206	     -1.96330829	    -11.88767690	    -16.84445577	     -8.59237819	    -10.59068364	      4.32436042	     -5.27330311	     -2.32467792	    -11.76643100	    -20.40955102	      5.37252980	      8.57784656	      7.78837291	      9.09440900	      2.12696776	    -12.46309558
      4.38500000	     -9.66449631	     -1.62112205	      5.68139622	     -1.60798851	     -0.02526168	     -0.73830661	     32.39022789	     -1.53958375	    -11.59537980	    -17.21404526	     -8.79150062	    -11.13138396	      2.61434216	     -4.87343941	     -2.84123509	    -12.19016761	    -21.67217630	      4.27215074	      8.57978882	      8.01928723	      9.37324369	      2.44104430	    -12.28969462
      4.39000000	     -9.69066533	     -1.84067482	      5.64359271	     -1.60089667	     -0.02483272	     -0.73750203	     32.16932444	     -1.27232184	    -11.66160459	    -17.47664236	     -9.00411283	    -11.55873204	      2.14768860	     -4.44854758	     -3.32914028	    -12.20872337	    -23.01137464	      3.01275641	      8.29161725	      7.97052840	      9.58274522	      2.72941483	    -12.39948050
      4.39500000	     -9.77407021	     -2.01998054	      5.39497118	     -1.59375975	     -0.02446214	     -0.73630116	     32.03101567	     -0.90096589	    -11.46707906	    -17.78971344	     -8.96062134	    -11.86752028	      0.80382545	     -3.96038424	     -3.80038775	    -12.56363616	    -24.37030113	      1.52755387	      8.04143088	      8.46573961	      9.84273920	      2.99096086	    -12.20595392
      4.40000000	     -9.73517583	     -2.23564695	      5.25537432	     -1.58665665	     -0.02391465	     -0.73541428	     31.69113707	     -0.57245412	    -11.52130746	    -17.98259002	     -8.88419984	    -12.05180799	      0.70269892	     -3.52061344	     -4.29699440	    -12.70981456	    -25.84016639	      0.07926549	      7.58948138	      8.29460545	      9.97200194	      3.30824205	    -12.15066483
      4.40500000	     -9.72844549	     -2.41732556	      5.08611096	     -1.57967472	     -0.02334150	     -0.73446183	     31.37005473	     -0.24299934	    -11.48202508	    -18.14116807	     -8.77004011	    -12.27411549	      0.56015627	     -2.99027729	     -4.75534747	    -12.84963612	    -27.36941166	     -1.53079172	      7.04508927	      8.17720749	     10.11114937	      3.59536694	    -12.04043128
      4.41000000	     -9.78603020	     -2.50311195	      4.90633974	     -1.57299724	     -0.02280263	     -0.73340215	     31.12784067	      0.02109821	    -11.24893509	    -18.31196345	     -8.58986634	    -12.54489595	      0.17395284	     -2.31931743	     -5.09672197	    -12.91795682	    -28.94191384	     -3.43106882	      6.25931197	      8.50742405	     10.25622641	      3.75962895	    -11.95834930
      4.41500000	     -9.78176826	     -2.67584403	      4.69346184	     -1.56620286	     -0.02221089	     -0.73240085	     30.77655685	      0.38769970	    -11.13259141	    -18.41687196	     -8.30332730	    -12.64300546	     -0.08289505	     -1.70164925	     -5.54190375	    -13.04867725	    -30.52573353	     -5.37846021	      5.45896769	      8.88039530	     10.36208527	      4.04503828	    -11.79353405
